# File exported by Houdini 19.5.403 (www.sidefx.com)
# 96 points
# 384 vertices
# 98 primitives
# Bounds: [-4.73812485, -0.499500036, -4.73812485] to [4.73812485, -0.100500003, 4.73812485]
g 
v 4.65662193 -0.41799736 4.73812485
v 0.0766827539 -0.42281729 4.73812485
v 0.0898448899 -0.389844894 4.73812485
v 4.72590208 -0.312222838 4.73812485
v 0.153903767 -0.499500036 4.58422136
v 4.57454777 -0.499500036 4.57454777
v 4.57344007 -0.499500036 0.164684892
v 0.174648762 -0.499500036 0.174648762
v -0.0898448899 -0.389844894 4.73812485
v -0.0766827539 -0.42281729 4.73812485
v -4.70209408 -0.463469297 4.73812485
v -4.71078634 -0.327338606 4.73812485
v 4.72590208 -0.287777185 4.73812485
v 0.0898448825 -0.210155129 4.73812485
v 0.0704384744 -0.170938477 4.73812485
v 4.69659138 -0.142033309 4.73812485
v 4.73812485 -0.41799736 4.65662193
v 4.73812485 -0.312222838 4.72590208
v 4.73812485 -0.345252573 0.0452525653
v 4.73812485 -0.41744557 0.082054466
v -4.66581059 -0.499500036 4.66581059
v -0.153903767 -0.499500036 4.58422136
v -0.174648762 -0.499500036 0.174648762
v -4.54631376 -0.499500036 0.191811368
v -4.73812485 -0.327338606 4.71078634
v -4.73812485 -0.463469297 4.70209408
v -4.73812485 -0.40392977 0.0955702662
v -4.73812485 -0.341759652 0.0417596288
v -0.0898448825 -0.210155129 4.73812485
v -4.71078634 -0.272661418 4.73812485
v -4.70957136 -0.129053563 4.73812485
v -0.0704384744 -0.170938477 4.73812485
v -4.73812485 -0.129053563 4.70957136
v -4.73812485 -0.272661418 4.71078634
v -4.73812485 -0.258240402 0.0417596251
v -4.73812485 -0.194733307 0.0942333117
v -0.141371399 -0.100500003 4.5967536
v -4.68081713 -0.100500003 4.68081713
v -4.54899693 -0.100500003 0.189128086
v -0.177577645 -0.100500003 0.177577645
v 4.65476656 -0.100500003 4.65476656
v 0.141371399 -0.100500003 4.5967536
v 0.177577645 -0.100500003 0.177577645
v 4.62558079 -0.100500003 0.112544276
v 4.73812485 -0.287777185 4.72590208
v 4.73812485 -0.142033309 4.69659138
v 4.73812485 -0.156575322 0.0560753271
v 4.73812485 -0.25474745 0.0452525616
v -4.712111 -0.473486394 -4.73812485
v -0.00688950624 -0.492610544 -4.73812485
v -0.0320595913 -0.332059592 -4.73812485
v -4.70071507 -0.337409854 -4.73812485
v -0.0138273714 -0.499500036 -4.72429752
v -4.68591499 -0.499500036 -4.68591499
v -4.54631376 -0.499500036 -0.191811368
v -0.174648762 -0.499500036 -0.174648762
v 0.0320595913 -0.332059592 -4.73812485
v 0.00688950624 -0.492610544 -4.73812485
v 4.69920015 -0.460575163 -4.73812485
v 4.69130611 -0.346818566 -4.73812485
v -4.70071507 -0.26259017 -4.73812485
v -0.0320595875 -0.267940432 -4.73812485
v -0.0901230723 -0.190623075 -4.73812485
v -4.70923853 -0.129386261 -4.73812485
v -4.73812485 -0.473486394 -4.712111
v -4.73812485 -0.337409854 -4.70071507
v -4.73812485 -0.341759652 -0.0417596288
v -4.73812485 -0.40392977 -0.0955702662
v 4.66000175 -0.499500036 -4.66000175
v 0.0138273714 -0.499500036 -4.72429752
v 0.174648762 -0.499500036 -0.174648762
v 4.57344007 -0.499500036 -0.164684892
v 4.73812485 -0.346818566 -4.69130611
v 4.73812485 -0.460575163 -4.69920015
v 4.73812485 -0.41744557 -0.082054466
v 4.73812485 -0.345252573 -0.0452525653
v 0.0320595875 -0.267940432 -4.73812485
v 4.69130611 -0.253181458 -4.73812485
v 4.71089602 -0.127728879 -4.73812485
v 0.0901230723 -0.190623075 -4.73812485
v 4.73812485 -0.127728879 -4.71089602
v 4.73812485 -0.253181458 -4.69130611
v 4.73812485 -0.25474745 -0.0452525616
v 4.73812485 -0.156575322 -0.0560753271
v 0.180878758 -0.100500003 -4.55724621
v 4.68347597 -0.100500003 -4.68347597
v 4.62558079 -0.100500003 -0.112544276
v 0.177577645 -0.100500003 -0.177577645
v -4.68014956 -0.100500003 -4.68014956
v -0.180878758 -0.100500003 -4.55724621
v -0.177577645 -0.100500003 -0.177577645
v -4.54899693 -0.100500003 -0.189128086
v -4.73812485 -0.26259017 -4.70071507
v -4.73812485 -0.129386261 -4.70923853
v -4.73812485 -0.194733307 -0.0942333117
v -4.73812485 -0.258240402 -0.0417596251
vn -0 -0 1
vn -0 0 1
vn -0 -0 1
vn 0 -0 1
vn -0 0 1
vn -0 -0 1
vn -0 -0 1
vn 0 -0 1
vn -0 -0 1
vn -0 0 1
vn -0 -0 1
vn 0 -0 1
vn 0 0 1
vn -0 -0 1
vn -0 -0 1
vn -0 -0 1
vn -0 -0 -1
vn -0 -0 -1
vn -0 -0 -1
vn 0 0 -1
vn 0 -0 -0.99999994
vn -0 -0 -1
vn -0 -0 -1
vn -0 0 -1
vn 0 -0 -1
vn -0 -0 -1
vn -0 0 -1
vn -0 -0 -1
vn -0 -0 -0.99999994
vn -0 -0 -1
vn -0 -0 -1
vn 0 0 -1
vn -0 1 0
vn -0 1 -0
vn 0 1 -0
vn -0 0.99999994 -0
vn -0 0.99999994 -0
vn -0 1 0
vn 0 1 -0
vn -0 1 -0
vn -0 1 -0
vn -0 1 0
vn 0 1 -0
vn -0 1 -0
vn -0 0.99999994 -0
vn 0 1 0
vn -0 1 -0
vn -0 1 -0
vn -0 -1 -0
vn 0 -0.99999994 -0
vn -0 -1 -0
vn -0 -1 0
vn -0 -1 -0
vn 0 -1 -0
vn -0 -1 -0
vn -0 -1 0
vn -0 -1 -0
vn -0 -0.99999994 -0
vn 0 -1 0
vn -0 -1 -0
vn -0 -1 -0
vn -0 -0.99999994 -0
vn 0 -1 0
vn -0 -1 -0
vn 1 0 -0
vn 1 -0 -0
vn 1 -0 0
vn 1 -0 -0
vn 1 -0 -0
vn 1 0 -0
vn 1 -0 0
vn 1 -0 -0
vn 1 0 -0
vn 0.99999994 -0 -0
vn 1 -0 0
vn 1 -0 -0
vn 1 -0 -0
vn 1 0 0
vn 1 -0 -0
vn 1 -0 -0
vn -1 -0 -0
vn -1 -0 0
vn -0.99999994 0 -0
vn -0.99999994 -0 -0
vn -1 -0 -0
vn -1 -0 -0
vn -1 -0 0
vn -1 0 -0
vn -0.99999994 -0 -0
vn -1 -0 -0
vn -1 0 0
vn -1 -0 -0
vn -1 -0 -0
vn -0.99999994 -0 0
vn -1 -0 -0
vn -0.99999994 0 -0
vn -0 0 1
vn -0 -0 1
vn -0 -0 1
vn 0 -0 1
vn -0 0 1
vn -0 -0 1
vn -0 -0 1
vn 0 -0 1
vn 0.641632557 -0.420256138 0.641632557
vn 0.641632557 -0.420256138 0.641632557
vn 0.641632557 -0.420256197 0.641632557
vn 0.641632557 -0.420256197 0.641632557
vn 0.000941754028 -0.89486295 0.446339935
vn 0.000976746436 -0.894855976 0.446354032
vn 0.000975030067 -0.895246744 0.445569694
vn 0.000942151062 -0.895240188 0.445582896
vn 0.445916265 -0.895074785 -0.000112007612
vn 0.445917875 -0.895073891 -0.000107964937
vn 0.446005255 -0.895030379 -0.000107959684
vn 0.446006864 -0.895029604 -0.000112030371
vn 0 -1 -0
vn -0 -1 0
vn -0 -1 -0
vn -0 -1 -0
vn 0 -0.99999994 -0
vn -0 -0.99999994 -0
vn -0 -0.99999994 0
vn -0 -0.99999994 -0
vn 0.00785235688 -0.893446326 0.449101478
vn 0.00812308956 -0.893389702 0.449209124
vn 0.00800586306 -0.896620989 0.442726433
vn 0.00788004696 -0.896596909 0.442777544
vn -0.706387162 -0.0451044776 0.706387162
vn -0.706387162 -0.0451044776 0.706387162
vn -0.706387103 -0.0451044738 0.706387103
vn -0.706387103 -0.0451044738 0.706387103
vn 0 -0 0.99999994
vn -0 0 1
vn -0 -0 1
vn -0 -0 1
vn -0 -0 1
vn -0 -0 1
vn -0 -0 1
vn 0 0 1
vn -0.0055853813 0.893917203 0.448197126
vn -0.00576181058 0.893880904 0.448267579
vn -0.00570259243 0.896176815 0.443660408
vn -0.00559937488 0.896156788 0.443702191
vn 0.700063527 0.140790492 0.700063527
vn 0.700063527 0.140790492 0.700063527
vn 0.700063586 0.140790537 0.700063586
vn 0.700063586 0.140790537 0.700063586
vn 1 -0 -0
vn 1 0 0
vn 1 -0 -0
vn 1 -0 -0
vn 1 -0 -0
vn 1 0 -0
vn 1 -0 0
vn 1 -0 -0
vn 0 -1 -0
vn -0 -1 0
vn -0 -1 -0
vn -0 -1 -0
vn -0.450762153 -0.892562866 -0.0120394854
vn -0.450563669 -0.892669737 -0.011537795
vn -0.441263676 -0.897302568 -0.0115976743
vn -0.441187769 -0.897337437 -0.011783761
vn -1 -0 0
vn -1 -0 -0
vn -0.99999994 0 -0
vn -0.99999994 -0 -0
vn -1 -0 -0
vn -1 -0 -0
vn -0.99999994 0 0
vn -0.99999994 -0 -0
vn -0.707094073 0.00598230492 0.707094073
vn -0.707094073 0.00598230492 0.707094073
vn -0.707094133 0.00598230492 0.707094133
vn -0.707094133 0.00598230492 0.707094133
vn 0.00809539668 0.896638334 0.442689687
vn 0.00819716603 0.896657765 0.442648441
vn 0.00832007825 0.893349349 0.449285746
vn 0.00806618016 0.893402457 0.449184805
vn -1 -0 0
vn -1 0 -0
vn -1 -0 -0
vn -1 -0 -0
vn -0.451021641 0.892422676 -0.0126998499
vn -0.45123598 0.892306447 -0.0132426834
vn -0.440717518 0.897552729 -0.0129339918
vn -0.44078353 0.897522628 -0.0127724241
vn -0 1 -0
vn -0 1 -0
vn -0 1 -0
vn 0 1 0
vn 0 1 -0
vn -0 1 -0
vn -0 1 -0
vn -0 1 0
vn -0 0.99999994 -0
vn -0 0.99999994 -0
vn -0 1 -0
vn 0 1 0
vn 0.447113007 0.894472897 -0.00287289754
vn 0.447085023 0.894487023 -0.00280305929
vn 0.444831371 0.895609915 -0.0028065783
vn 0.444810599 0.895620108 -0.00285810325
vn 1 -0 -0
vn 1 -0 -0
vn 1 0 0
vn 1 -0 -0
vn -0 -0 -1
vn -0 0 -1
vn -0 -0 -0.99999994
vn 0 -0 -0.99999994
vn 0 -0 -1
vn -0 -0 -1
vn -0 0 -1
vn -0 -0 -1
vn -0.705870152 0.0591141395 -0.705870152
vn -0.705870152 0.0591141395 -0.705870152
vn -0.705870152 0.059114147 -0.705870152
vn -0.705870152 0.059114147 -0.705870152
vn -0.0036349094 -0.894317031 -0.447419107
vn -0.0036758096 -0.894308686 -0.447435439
vn -0.00365161058 -0.895776391 -0.444489837
vn -0.00364083215 -0.895774245 -0.444494218
vn -0.440412313 -0.897691369 0.0136806164
vn -0.440476 -0.897662401 0.0135249235
vn -0.451316535 -0.892262697 0.0134435687
vn -0.45154655 -0.892137289 0.0140264798
vn -0 -1 -0
vn -0 -1 -0
vn 0 -1 -0
vn -0 -1 0
vn 0.00611893972 -0.896258056 -0.443490863
vn 0.00613711635 -0.896261573 -0.443483472
vn 0.00620578462 -0.893788457 -0.448445678
vn 0.00610222621 -0.893809915 -0.448404461
vn 0.706257045 0.0490100831 -0.706257045
vn 0.706257045 0.0490100831 -0.706257045
vn 0.706257045 0.0490100868 -0.706257045
vn 0.706257045 0.0490100868 -0.706257045
vn -0 -0 -1
vn -0 -0 -1
vn -0 0 -1
vn 0 -0 -1
vn -0 -0 -1
vn -0 0 -1
vn -0 -0 -1
vn 0 -0 -1
vn 0.0118335262 0.892607152 -0.450680077
vn 0.0123161152 0.892504156 -0.450870872
vn 0.0120486459 0.897387266 -0.441079289
vn 0.011896519 0.897358716 -0.441141397
vn -0.706384063 -0.0452001691 -0.706384063
vn -0.706384063 -0.0452001691 -0.706384063
vn -0.706384122 -0.0452001728 -0.706384122
vn -0.706384122 -0.0452001728 -0.706384122
vn -1 -0 -0
vn -1 -0 0
vn -0.99999994 -0 -0
vn -0.99999994 0 -0
vn 0.449418992 -0.893279195 0.00865399744
vn 0.449296176 -0.893343866 0.00834488776
vn 0.442575634 -0.896692038 0.00837616343
vn 0.442516714 -0.896719754 0.00852108747
vn 1 -0 -0
vn 1 0 0
vn 1 -0 -0
vn 1 -0 -0
vn 0.702835262 -0.10975042 -0.702835262
vn 0.702835262 -0.10975042 -0.702835262
vn 0.702835321 -0.109750427 -0.702835321
vn 0.702835321 -0.109750427 -0.702835321
vn -0.012214927 0.89741838 -0.44101128
vn -0.0123620145 0.897445977 -0.440951258
vn -0.0126437442 0.892434239 -0.451000512
vn -0.0121485265 0.892539918 -0.45080471
vn 0.448179632 0.893926382 0.00553976092
vn 0.448234528 0.89389807 0.00567731494
vn 0.443694174 0.896160603 0.00561980763
vn 0.443721056 0.896147728 0.00555352727
vn -0 1 -0
vn -0 1 0
vn 0 1 -0
vn -0 1 -0
vn -0.451210976 0.892320096 0.0131768472
vn -0.450997561 0.89243567 0.012636614
vn -0.440809697 0.897510648 0.012708474
vn -0.440743208 0.897540987 0.0128711537
vn 0.300361842 -0.905298531 0.300361842
vn 0.300361812 -0.905298591 0.300361812
vn 0.300361842 -0.905298531 0.300361842
vn -0 -0.895052016 0.445961624
vn -0 -0.895052016 0.445961624
vn -0 -0.895052016 0.445961624
vn -0 -0.895052016 0.445961624
vn 0 0 1
vn -0 -0 1
vn -0 -0 1
vn -0 -0 1
vn 0.707106829 -0 0.707106829
vn 0.707106829 0 0.707106829
vn 0.707106829 0 0.707106829
vn 0.707106829 -0 0.707106829
vn -0.300361454 -0.905298769 0.300361454
vn -0.300361454 -0.905298769 0.300361454
vn -0.300361514 -0.905298889 0.300361514
vn -0.707106829 -0 0.707106829
vn -0.707106829 -0 0.707106829
vn -0.707106829 -0 0.707106829
vn -0.707106829 -0 0.707106829
vn -0.300359666 0.905300021 0.300359666
vn -0.300359666 0.905299962 0.300359666
vn -0.300359666 0.905300021 0.300359666
vn 0 0.895052195 0.445961386
vn -0 0.895052254 0.445961356
vn -0 0.895052254 0.445961356
vn 0 0.895052195 0.445961386
vn 0.30036065 0.905299485 0.30036065
vn 0.30036065 0.905299485 0.30036065
vn 0.30036062 0.905299306 0.30036062
vn -0.300361753 -0.905298769 -0.300361753
vn -0.300361693 -0.90529865 -0.300361693
vn -0.300361753 -0.905298769 -0.300361753
vn -0 -0.895052135 -0.445961535
vn 0 -0.895052195 -0.445961595
vn 0 -0.895052195 -0.445961595
vn -0 -0.895052135 -0.445961535
vn 0 -0 -1
vn -0 -0 -1
vn -0 -0 -1
vn -0 0 -1
vn -0.707106829 0 -0.707106829
vn -0.707106829 -0 -0.707106829
vn -0.707106829 -0 -0.707106829
vn -0.707106829 0 -0.707106829
vn 0.300359964 -0.905299783 -0.300359964
vn 0.300359964 -0.905299783 -0.300359964
vn 0.300359994 -0.905299842 -0.300359994
vn 0.707106829 -0 -0.707106829
vn 0.707106829 -0 -0.707106829
vn 0.707106829 -0 -0.707106829
vn 0.707106829 -0 -0.707106829
vn 0.300360739 0.905299306 -0.300360739
vn 0.300360769 0.905299366 -0.300360769
vn 0.300360739 0.905299306 -0.300360739
vn -0 0.895052314 -0.445961267
vn -0 0.895052254 -0.445961237
vn -0 0.895052254 -0.445961237
vn -0 0.895052314 -0.445961267
vn -0.300360948 0.905299187 -0.300360948
vn -0.300360948 0.905299187 -0.300360948
vn -0.300360948 0.905299127 -0.300360948
vn 0 1 0
vn -0 1 -0
vn -0 1 -0
vn -0 1 -0
vn -0.445961326 0.895052254 -0
vn -0.445961326 0.895052254 -0
vn -0.445961326 0.895052254 -0
vn -0.445961326 0.895052254 -0
vn 0.445961565 0.895052075 0
vn 0.445961595 0.895052075 -0
vn 0.445961595 0.895052075 -0
vn 0.445961565 0.895052075 0
vn 0 -1 -0
vn -0 -1 -0
vn -0 -1 0
vn -0 -1 -0
vn 0.445961326 -0.895052254 -0
vn 0.445961326 -0.895052254 -0
vn 0.445961267 -0.895052195 -0
vn 0.445961267 -0.895052195 -0
vn -0.445961565 -0.895052135 -0
vn -0.445961595 -0.895052135 0
vn -0.445961595 -0.895052135 0
vn -0.445961565 -0.895052135 -0
vn 1 -0 -0
vn 1 0 -0
vn 1 -0 0
vn 1 -0 -0
vn -1 -0 -0
vn -1 -0 0
vn -1 -0 -0
vn -1 0 -0
g 
f 1//1 4//2 3//3 2//4
f 10//5 9//6 12//7 11//8
f 29//9 32//10 31//11 30//12
f 13//13 16//14 15//15 14//16
f 49//17 52//18 51//19 50//20
f 58//21 57//22 60//23 59//24
f 77//25 80//26 79//27 78//28
f 61//29 64//30 63//31 62//32
f 89//33 92//34 91//35 90//36
f 85//37 88//38 87//39 86//40
f 43//41 42//42 41//43 44//44
f 39//45 38//46 37//47 40//48
f 69//49 72//50 71//51 70//52
f 53//53 56//54 55//55 54//56
f 23//57 22//58 21//59 24//60
f 7//61 6//62 5//63 8//64
f 74//65 73//66 76//67 75//68
f 20//69 19//70 18//71 17//72
f 48//73 47//74 46//75 45//76
f 82//77 81//78 84//79 83//80
f 26//81 25//82 28//83 27//84
f 68//85 67//86 66//87 65//88
f 96//89 95//90 94//91 93//92
f 34//93 33//94 36//95 35//96
f 3//97 9//98 10//99 2//100
f 4//101 13//102 14//103 3//104
f 1//105 17//106 18//107 4//108
f 2//109 5//110 6//111 1//112
f 7//113 20//114 17//115 6//116
f 8//117 71//118 72//119 7//120
f 5//121 22//122 23//123 8//124
f 11//125 21//126 22//127 10//128
f 12//129 25//130 26//131 11//132
f 9//133 29//134 30//135 12//136
f 15//137 32//138 29//139 14//140
f 16//141 41//142 42//143 15//144
f 13//145 45//146 46//147 16//148
f 19//149 48//150 45//151 18//152
f 20//153 75//154 76//155 19//156
f 24//157 55//158 56//159 23//160
f 21//161 26//162 27//163 24//164
f 28//165 67//166 68//167 27//168
f 25//169 34//170 35//171 28//172
f 31//173 33//174 34//175 30//176
f 32//177 37//178 38//179 31//180
f 36//181 95//182 96//183 35//184
f 33//185 38//186 39//187 36//188
f 40//189 91//190 92//191 39//192
f 37//193 42//194 43//195 40//196
f 44//197 87//198 88//199 43//200
f 41//201 46//202 47//203 44//204
f 48//205 83//206 84//207 47//208
f 51//209 57//210 58//211 50//212
f 52//213 61//214 62//215 51//216
f 49//217 65//218 66//219 52//220
f 50//221 53//222 54//223 49//224
f 55//225 68//226 65//227 54//228
f 53//229 70//230 71//231 56//232
f 59//233 69//234 70//235 58//236
f 60//237 73//238 74//239 59//240
f 57//241 77//242 78//243 60//244
f 63//245 80//246 77//247 62//248
f 64//249 89//250 90//251 63//252
f 61//253 93//254 94//255 64//256
f 67//257 96//258 93//259 66//260
f 69//261 74//262 75//263 72//264
f 73//265 82//266 83//267 76//268
f 79//269 81//270 82//271 78//272
f 80//273 85//274 86//275 79//276
f 81//277 86//278 87//279 84//280
f 85//281 90//282 91//283 88//284
f 89//285 94//286 95//287 92//288
f 1//289 6//290 17//291
f 10//292 22//293 5//294 2//295
f 3//296 14//297 29//298 9//299
f 4//300 18//301 45//302 13//303
f 11//304 26//305 21//306
f 12//307 30//308 34//309 25//310
f 31//311 38//312 33//313
f 15//314 42//315 37//316 32//317
f 16//318 46//319 41//320
f 49//321 54//322 65//323
f 58//324 70//325 53//326 50//327
f 51//328 62//329 77//330 57//331
f 52//332 66//333 93//334 61//335
f 59//336 74//337 69//338
f 60//339 78//340 82//341 73//342
f 79//343 86//344 81//345
f 63//346 90//347 85//348 80//349
f 64//350 94//351 89//352
f 40//353 43//354 88//355 91//356
f 36//357 39//358 92//359 95//360
f 44//361 47//362 84//363 87//364
f 8//365 23//366 56//367 71//368
f 7//369 72//370 75//371 20//372
f 24//373 27//374 68//375 55//376
f 19//377 76//378 83//379 48//380
f 28//381 35//382 96//383 67//384
